<svg width="126" height="138" viewBox="0 0 126 138" fill="none" xmlns="http://www.w3.org/2000/svg">
<g filter="url(#filter0_i_338_7201)">
<rect x="0.25" y="11.0096" width="125" height="123.798" rx="60" fill="#FEF2EB"/>
</g>
<g filter="url(#filter1_f_338_7201)">
<path d="M83.6368 105.399C76.938 98.5425 62.2994 105.305 56.0375 110.805C50.8453 114.469 55.6829 116.655 58.6366 116.831C61.5902 117.006 69.1279 119.803 76.6656 122.6L76.6657 122.6C84.2034 125.397 90.3355 112.256 83.6368 105.399Z" fill="#FF6B1D"/>
</g>
<g filter="url(#filter2_f_338_7201)">
<path d="M96.4877 95.5599C90.6116 85.0847 70.6329 88.5764 61.2312 93.2321C53.7295 96.0059 58.8808 100.216 62.4064 101.38C65.9321 102.543 74.1585 108.363 82.385 114.183L82.3851 114.183C90.6116 120.002 102.364 106.035 96.4877 95.5599Z" fill="#FF6B1D"/>
</g>
<rect x="12.3861" y="23.0289" width="100.728" height="99.7596" rx="49.8798" fill="#DB5209"/>
<g clip-path="url(#clip0_338_7201)">
<path d="M43.9672 64.7957H82.7441C82.9659 64.7957 83.1786 64.8819 83.3358 65.0354C83.4931 65.1889 83.5821 65.3973 83.5834 65.6151V93.4897C83.5834 94.326 83.4156 95.1541 83.0894 95.9266C82.7632 96.6992 82.2852 97.401 81.6827 97.9919C81.0801 98.5828 80.3648 99.0512 79.5778 99.3704C78.7907 99.6895 77.9473 99.8531 77.0958 99.8518H49.618C47.8993 99.8511 46.2511 99.181 45.0348 97.9883C43.8186 96.7955 43.1337 95.1777 43.1304 93.4897V65.6126C43.1317 65.3955 43.2205 65.1877 43.3772 65.0347C43.534 64.8816 43.7461 64.7957 43.9672 64.7957Z" stroke="#FCF9F7" stroke-miterlimit="10"/>
<path fill-rule="evenodd" clip-rule="evenodd" d="M63.3641 42.2597C70.3266 42.2597 75.9985 48.2943 75.9985 55.7212H75.9865V64.7957H70.1704V53.6454C70.1704 49.644 67.1109 44.651 63.3641 44.651C59.6149 44.651 56.5555 49.644 56.5555 53.6454V64.7957H50.7153V55.7212C50.7153 48.2943 56.3992 42.2597 63.3641 42.2597Z" fill="#FCF9F7"/>
</g>
<g filter="url(#filter3_i_338_7201)">
<rect x="45.1527" y="0.192322" width="33.6538" height="33.6538" rx="16.8269" fill="#FEF2EB"/>
<path d="M59.5137 11.3829V23.0193H57.7523V13.1443H57.6842L54.9001 14.9624V13.2806L57.8035 11.3829H59.5137ZM67.0762 11.3829V23.0193H65.3148V13.1443H65.2467L62.4626 14.9624V13.2806L65.366 11.3829H67.0762Z" fill="#665F5C"/>
</g>
<defs>
<filter id="filter0_i_338_7201" x="0.25" y="11.0096" width="125" height="123.798" filterUnits="userSpaceOnUse" color-interpolation-filters="sRGB">
<feFlood flood-opacity="0" result="BackgroundImageFix"/>
<feBlend mode="normal" in="SourceGraphic" in2="BackgroundImageFix" result="shape"/>
<feColorMatrix in="SourceAlpha" type="matrix" values="0 0 0 0 0 0 0 0 0 0 0 0 0 0 0 0 0 0 127 0" result="hardAlpha"/>
<feOffset/>
<feGaussianBlur stdDeviation="2"/>
<feComposite in2="hardAlpha" operator="arithmetic" k2="-1" k3="1"/>
<feColorMatrix type="matrix" values="0 0 0 0 0.429167 0 0 0 0 0.149187 0 0 0 0 0 0 0 0 0.15 0"/>
<feBlend mode="normal" in2="shape" result="effect1_innerShadow_338_7201"/>
</filter>
<filter id="filter1_f_338_7201" x="38.7438" y="87.5037" width="62.7661" height="50.481" filterUnits="userSpaceOnUse" color-interpolation-filters="sRGB">
<feFlood flood-opacity="0" result="BackgroundImageFix"/>
<feBlend mode="normal" in="SourceGraphic" in2="BackgroundImageFix" result="shape"/>
<feGaussianBlur stdDeviation="7.5" result="effect1_foregroundBlur_338_7201"/>
</filter>
<filter id="filter2_f_338_7201" x="42.3767" y="73.7136" width="70.6965" height="56.8385" filterUnits="userSpaceOnUse" color-interpolation-filters="sRGB">
<feFlood flood-opacity="0" result="BackgroundImageFix"/>
<feBlend mode="normal" in="SourceGraphic" in2="BackgroundImageFix" result="shape"/>
<feGaussianBlur stdDeviation="7.5" result="effect1_foregroundBlur_338_7201"/>
</filter>
<filter id="filter3_i_338_7201" x="45.1527" y="0.192322" width="33.6538" height="33.6538" filterUnits="userSpaceOnUse" color-interpolation-filters="sRGB">
<feFlood flood-opacity="0" result="BackgroundImageFix"/>
<feBlend mode="normal" in="SourceGraphic" in2="BackgroundImageFix" result="shape"/>
<feColorMatrix in="SourceAlpha" type="matrix" values="0 0 0 0 0 0 0 0 0 0 0 0 0 0 0 0 0 0 127 0" result="hardAlpha"/>
<feOffset/>
<feGaussianBlur stdDeviation="2"/>
<feComposite in2="hardAlpha" operator="arithmetic" k2="-1" k3="1"/>
<feColorMatrix type="matrix" values="0 0 0 0 0.429167 0 0 0 0 0.149187 0 0 0 0 0 0 0 0 0.15 0"/>
<feBlend mode="normal" in2="shape" result="effect1_innerShadow_338_7201"/>
</filter>
<clipPath id="clip0_338_7201">
<rect width="60.6796" height="60.0962" fill="white" transform="translate(33.0171 42.2597)"/>
</clipPath>
</defs>
</svg>
