<svg width="141" height="151" viewBox="0 0 141 151" fill="none" xmlns="http://www.w3.org/2000/svg">
<g filter="url(#filter0_i_338_7249)">
<rect y="19.0096" width="125" height="123.798" rx="60" fill="#FEF2EB"/>
</g>
<g filter="url(#filter1_f_338_7249)">
<path d="M83.3868 113.399C76.688 106.542 62.0494 113.305 55.7875 118.805C50.5953 122.469 55.4329 124.655 58.3866 124.831C61.3402 125.006 68.8779 127.803 76.4156 130.6L76.4157 130.6C83.9534 133.397 90.0855 120.256 83.3868 113.399Z" fill="#FF6B1D"/>
</g>
<g filter="url(#filter2_f_338_7249)">
<path d="M96.2377 103.56C90.3616 93.0847 70.3829 96.5764 60.9812 101.232C53.4795 104.006 58.6308 108.216 62.1564 109.38C65.6821 110.543 73.9085 116.363 82.135 122.183L82.1351 122.183C90.3616 128.002 102.114 114.035 96.2377 103.56Z" fill="#FF6B1D"/>
</g>
<rect x="12.1361" y="31.0289" width="100.728" height="99.7596" rx="49.8798" fill="#DB5209"/>
<g clip-path="url(#clip0_338_7249)">
<path d="M43.7172 72.7957H82.4941C82.7159 72.7957 82.9286 72.8819 83.0858 73.0354C83.2431 73.1889 83.3321 73.3973 83.3334 73.6151V101.49C83.3334 102.326 83.1656 103.154 82.8394 103.927C82.5132 104.699 82.0352 105.401 81.4327 105.992C80.8301 106.583 80.1148 107.051 79.3278 107.37C78.5407 107.69 77.6973 107.853 76.8458 107.852H49.368C47.6493 107.851 46.0011 107.181 44.7848 105.988C43.5686 104.796 42.8837 103.178 42.8804 101.49V73.6126C42.8817 73.3955 42.9705 73.1877 43.1272 73.0347C43.284 72.8816 43.4961 72.7957 43.7172 72.7957Z" stroke="#FCF9F7" stroke-miterlimit="10"/>
<path fill-rule="evenodd" clip-rule="evenodd" d="M63.1141 50.2597C70.0766 50.2597 75.7485 56.2943 75.7485 63.7212H75.7365V72.7957H69.9204V61.6454C69.9204 57.644 66.8609 52.651 63.1141 52.651C59.3649 52.651 56.3055 57.644 56.3055 61.6454V72.7957H50.4653V63.7212C50.4653 56.2943 56.1492 50.2597 63.1141 50.2597Z" fill="#FCF9F7"/>
</g>
<g filter="url(#filter3_i_338_7249)">
<rect x="44.9027" y="8.19232" width="33.6538" height="33.6538" rx="16.8269" fill="#FEF2EB"/>
<path d="M59.2637 19.3829V31.0193H57.5023V21.1443H57.4342L54.6501 22.9624V21.2806L57.5535 19.3829H59.2637ZM66.8262 19.3829V31.0193H65.0648V21.1443H64.9967L62.2126 22.9624V21.2806L65.116 19.3829H66.8262Z" fill="#665F5C"/>
</g>
<rect x="125" width="16" height="151" rx="8" fill="#B3A6A1"/>
<rect x="125" width="16" height="58" rx="8" fill="#DB5209"/>
<defs>
<filter id="filter0_i_338_7249" x="0" y="19.0096" width="125" height="123.798" filterUnits="userSpaceOnUse" color-interpolation-filters="sRGB">
<feFlood flood-opacity="0" result="BackgroundImageFix"/>
<feBlend mode="normal" in="SourceGraphic" in2="BackgroundImageFix" result="shape"/>
<feColorMatrix in="SourceAlpha" type="matrix" values="0 0 0 0 0 0 0 0 0 0 0 0 0 0 0 0 0 0 127 0" result="hardAlpha"/>
<feOffset/>
<feGaussianBlur stdDeviation="2"/>
<feComposite in2="hardAlpha" operator="arithmetic" k2="-1" k3="1"/>
<feColorMatrix type="matrix" values="0 0 0 0 0.429167 0 0 0 0 0.149187 0 0 0 0 0 0 0 0 0.15 0"/>
<feBlend mode="normal" in2="shape" result="effect1_innerShadow_338_7249"/>
</filter>
<filter id="filter1_f_338_7249" x="38.4938" y="95.5037" width="62.7661" height="50.481" filterUnits="userSpaceOnUse" color-interpolation-filters="sRGB">
<feFlood flood-opacity="0" result="BackgroundImageFix"/>
<feBlend mode="normal" in="SourceGraphic" in2="BackgroundImageFix" result="shape"/>
<feGaussianBlur stdDeviation="7.5" result="effect1_foregroundBlur_338_7249"/>
</filter>
<filter id="filter2_f_338_7249" x="42.1267" y="81.7136" width="70.6965" height="56.8385" filterUnits="userSpaceOnUse" color-interpolation-filters="sRGB">
<feFlood flood-opacity="0" result="BackgroundImageFix"/>
<feBlend mode="normal" in="SourceGraphic" in2="BackgroundImageFix" result="shape"/>
<feGaussianBlur stdDeviation="7.5" result="effect1_foregroundBlur_338_7249"/>
</filter>
<filter id="filter3_i_338_7249" x="44.9027" y="8.19232" width="33.6538" height="33.6538" filterUnits="userSpaceOnUse" color-interpolation-filters="sRGB">
<feFlood flood-opacity="0" result="BackgroundImageFix"/>
<feBlend mode="normal" in="SourceGraphic" in2="BackgroundImageFix" result="shape"/>
<feColorMatrix in="SourceAlpha" type="matrix" values="0 0 0 0 0 0 0 0 0 0 0 0 0 0 0 0 0 0 127 0" result="hardAlpha"/>
<feOffset/>
<feGaussianBlur stdDeviation="2"/>
<feComposite in2="hardAlpha" operator="arithmetic" k2="-1" k3="1"/>
<feColorMatrix type="matrix" values="0 0 0 0 0.429167 0 0 0 0 0.149187 0 0 0 0 0 0 0 0 0.15 0"/>
<feBlend mode="normal" in2="shape" result="effect1_innerShadow_338_7249"/>
</filter>
<clipPath id="clip0_338_7249">
<rect width="60.6796" height="60.0962" fill="white" transform="translate(32.7671 50.2597)"/>
</clipPath>
</defs>
</svg>
