<svg width="56" height="56" viewBox="0 0 56 56" fill="none" xmlns="http://www.w3.org/2000/svg">
<path d="M55.5 28C55.5 31.6114 54.7887 35.1873 53.4067 38.5238C52.0247 41.8602 49.999 44.8918 47.4454 47.4454C44.8918 49.999 41.8602 52.0247 38.5238 53.4067C35.1873 54.7887 31.6114 55.5 28 55.5C24.3886 55.5 20.8127 54.7887 17.4762 53.4067C14.1398 52.0247 11.1082 49.999 8.55456 47.4454C6.00095 44.8918 3.97532 41.8602 2.59331 38.5238C1.21131 35.1873 0.5 31.6113 0.5 28" stroke="#DB5209"/>
<path d="M56 28C56 20.5739 53.05 13.452 47.799 8.20101C42.548 2.94999 35.4261 5.60652e-07 28 0C20.5739 -5.60652e-07 13.452 2.94999 8.20101 8.20101C2.94999 13.452 1.1213e-06 20.5739 0 28L28 28H56Z" fill="#DB5209"/>
<g clip-path="url(#clip0_234_9545)">
<path fill-rule="evenodd" clip-rule="evenodd" d="M21.7659 36.2473L19.8546 48.4654H36.1455L34.2933 36.2473H21.7659ZM22.5669 37.0267H33.4285L35.0925 47.6829H20.9028L22.5669 37.0267Z" fill="#DB5209"/>
<path fill-rule="evenodd" clip-rule="evenodd" d="M31.1827 37.6582H30.4282V35.5816C30.4282 34.1439 29.3218 32.9735 27.9623 32.9735C26.6028 32.9735 25.4963 34.1439 25.4963 35.5816V37.6582H24.7418V35.5816C24.7418 33.718 26.2002 32.1746 27.9623 32.1746C29.7243 32.1746 31.1827 33.718 31.1827 35.5816V37.6582Z" fill="#DB5209"/>
</g>
<g filter="url(#filter0_i_234_9545)">
<rect x="19.04" y="5.59998" width="17.92" height="17.92" rx="8.96" fill="#FCF9F7"/>
</g>
<defs>
<filter id="filter0_i_234_9545" x="19.04" y="5.59998" width="17.92" height="17.92" filterUnits="userSpaceOnUse" color-interpolation-filters="sRGB">
<feFlood flood-opacity="0" result="BackgroundImageFix"/>
<feBlend mode="normal" in="SourceGraphic" in2="BackgroundImageFix" result="shape"/>
<feColorMatrix in="SourceAlpha" type="matrix" values="0 0 0 0 0 0 0 0 0 0 0 0 0 0 0 0 0 0 127 0" result="hardAlpha"/>
<feOffset/>
<feGaussianBlur stdDeviation="2"/>
<feComposite in2="hardAlpha" operator="arithmetic" k2="-1" k3="1"/>
<feColorMatrix type="matrix" values="0 0 0 0 0.429167 0 0 0 0 0.149187 0 0 0 0 0 0 0 0 0.15 0"/>
<feBlend mode="normal" in2="shape" result="effect1_innerShadow_234_9545"/>
</filter>
<clipPath id="clip0_234_9545">
<rect width="17.92" height="17.92" fill="white" transform="translate(19.04 31.36)"/>
</clipPath>
</defs>
</svg>
