<svg width="52" height="58" viewBox="0 0 52 58" fill="none" xmlns="http://www.w3.org/2000/svg">
<g filter="url(#filter0_i_234_9521)">
<rect y="4.5" width="52" height="51.5" rx="25.75" fill="#FEF2EB"/>
</g>
<g filter="url(#filter1_f_234_9521)">
<path d="M34.362 45.5775C31.5754 42.725 25.4857 45.5383 22.8807 47.8261C20.7208 49.3504 22.7332 50.2599 23.962 50.3329C25.1907 50.406 28.3263 51.5694 31.462 52.7328L31.4621 52.7329C34.5978 53.8963 37.1487 48.43 34.362 45.5775Z" fill="#FF6B1D"/>
</g>
<g filter="url(#filter2_f_234_9521)">
<path d="M39.7081 41.4842C37.2636 37.1265 28.9525 38.5791 25.0413 40.5158C21.9206 41.6697 24.0636 43.421 25.5302 43.9052C26.9969 44.3893 30.4191 46.8103 33.8413 49.2312L33.8414 49.2312C37.2636 51.6522 42.1525 45.8419 39.7081 41.4842Z" fill="#FF6B1D"/>
</g>
<rect x="5.04855" y="9.5" width="41.9029" height="41.5" rx="20.75" fill="#DB5209"/>
<g clip-path="url(#clip0_234_9521)">
<path d="M18.1863 26.875H34.3175C34.4098 26.875 34.4983 26.9108 34.5637 26.9747C34.6291 27.0386 34.6661 27.1253 34.6667 27.2159V38.8117C34.6667 39.1596 34.5968 39.5041 34.4612 39.8255C34.3255 40.1468 34.1266 40.4388 33.8759 40.6846C33.6253 40.9304 33.3277 41.1253 33.0003 41.2581C32.6729 41.3908 32.322 41.4589 31.9678 41.4583H20.537C19.8221 41.4581 19.1364 41.1793 18.6305 40.6831C18.1245 40.1869 17.8396 39.5139 17.8382 38.8117V27.2148C17.8387 27.1245 17.8757 27.0381 17.9409 26.9744C18.0061 26.9107 18.0943 26.875 18.1863 26.875Z" stroke="#FCF9F7" stroke-miterlimit="10"/>
<path fill-rule="evenodd" clip-rule="evenodd" d="M26.2554 17.5C29.1518 17.5 31.5113 20.0104 31.5113 23.1H31.5063V26.875H29.0868V22.2365C29.0868 20.5719 27.8141 18.4948 26.2554 18.4948C24.6958 18.4948 23.423 20.5719 23.423 22.2365V26.875H20.9935V23.1C20.9935 20.0104 23.358 17.5 26.2554 17.5Z" fill="#FCF9F7"/>
</g>
<g filter="url(#filter3_i_234_9521)">
<rect x="18.6796" width="14" height="14" rx="7" fill="#FEF2EB"/>
</g>
<defs>
<filter id="filter0_i_234_9521" x="0" y="4.5" width="52" height="51.5" filterUnits="userSpaceOnUse" color-interpolation-filters="sRGB">
<feFlood flood-opacity="0" result="BackgroundImageFix"/>
<feBlend mode="normal" in="SourceGraphic" in2="BackgroundImageFix" result="shape"/>
<feColorMatrix in="SourceAlpha" type="matrix" values="0 0 0 0 0 0 0 0 0 0 0 0 0 0 0 0 0 0 127 0" result="hardAlpha"/>
<feOffset/>
<feGaussianBlur stdDeviation="2"/>
<feComposite in2="hardAlpha" operator="arithmetic" k2="-1" k3="1"/>
<feColorMatrix type="matrix" values="0 0 0 0 0.429167 0 0 0 0 0.149187 0 0 0 0 0 0 0 0 0.15 0"/>
<feBlend mode="normal" in2="shape" result="effect1_innerShadow_234_9521"/>
</filter>
<filter id="filter1_f_234_9521" x="16.9265" y="39.3728" width="23.6307" height="18.5201" filterUnits="userSpaceOnUse" color-interpolation-filters="sRGB">
<feFlood flood-opacity="0" result="BackgroundImageFix"/>
<feBlend mode="normal" in="SourceGraphic" in2="BackgroundImageFix" result="shape"/>
<feGaussianBlur stdDeviation="2.5" result="effect1_foregroundBlur_234_9521"/>
</filter>
<filter id="filter2_f_234_9521" x="18.4379" y="33.6361" width="26.9297" height="21.1649" filterUnits="userSpaceOnUse" color-interpolation-filters="sRGB">
<feFlood flood-opacity="0" result="BackgroundImageFix"/>
<feBlend mode="normal" in="SourceGraphic" in2="BackgroundImageFix" result="shape"/>
<feGaussianBlur stdDeviation="2.5" result="effect1_foregroundBlur_234_9521"/>
</filter>
<filter id="filter3_i_234_9521" x="18.6796" y="0" width="14" height="14" filterUnits="userSpaceOnUse" color-interpolation-filters="sRGB">
<feFlood flood-opacity="0" result="BackgroundImageFix"/>
<feBlend mode="normal" in="SourceGraphic" in2="BackgroundImageFix" result="shape"/>
<feColorMatrix in="SourceAlpha" type="matrix" values="0 0 0 0 0 0 0 0 0 0 0 0 0 0 0 0 0 0 127 0" result="hardAlpha"/>
<feOffset/>
<feGaussianBlur stdDeviation="2"/>
<feComposite in2="hardAlpha" operator="arithmetic" k2="-1" k3="1"/>
<feColorMatrix type="matrix" values="0 0 0 0 0.429167 0 0 0 0 0.149187 0 0 0 0 0 0 0 0 0.15 0"/>
<feBlend mode="normal" in2="shape" result="effect1_innerShadow_234_9521"/>
</filter>
<clipPath id="clip0_234_9521">
<rect width="25.2427" height="25" fill="white" transform="translate(13.6311 17.5)"/>
</clipPath>
</defs>
</svg>
