<svg width="52" height="56" viewBox="0 0 52 56" fill="none" xmlns="http://www.w3.org/2000/svg">
<g filter="url(#filter0_i_234_9529)">
<rect y="4" width="52" height="52" rx="12" fill="#FEF2EB"/>
</g>
<rect x="6" y="10" width="40" height="40" rx="8" fill="#DB5209"/>
<g clip-path="url(#clip0_234_9529)">
<path d="M37.3982 30.8072H37.3747V28.8258C37.3747 25.8006 36.2458 22.9564 34.1957 20.8173C32.1456 18.6781 29.42 17.5 26.5208 17.5C23.6216 17.5 20.896 18.6781 18.846 20.8173C16.7959 22.9565 15.6669 25.8006 15.6669 28.8258V30.8072H15.6435C15.0359 30.8072 14.5417 31.323 14.5417 31.9569C14.5417 32.5909 15.0359 33.1067 15.6435 33.1067H15.6681C15.6676 33.1148 15.6669 33.1228 15.6669 33.1311C15.6669 35.8932 15.7886 38.3159 17.2837 39.9898C18.8344 41.7258 21.6832 42.5 26.5208 42.5C27.0616 42.5 27.5773 42.4903 28.0693 42.4706H28.0698C28.0717 42.4706 28.0736 42.4704 28.0755 42.4704C29.3669 42.4186 30.4939 42.2985 31.4734 42.105C31.4795 42.104 31.4856 42.1027 31.4916 42.1013C33.465 41.709 34.8393 41.0182 35.7579 39.9897C36.1559 39.5442 36.4557 39.0451 36.6827 38.5012C36.6926 38.4823 36.7007 38.4627 36.7072 38.4426C37.3105 36.9539 37.3747 35.1317 37.3747 33.1311C37.3747 33.1228 37.3741 33.1148 37.3736 33.1067H37.3982C38.0057 33.1067 38.5 32.5909 38.5 31.9569C38.5 31.323 38.0057 30.8072 37.3982 30.8072ZM16.3702 28.8258C16.3702 25.9966 17.426 23.3367 19.3432 21.3362C21.2604 19.3356 23.8095 18.2339 26.5208 18.2339C29.2321 18.2339 31.7812 19.3356 33.6984 21.3362C35.6156 23.3367 36.6715 25.9966 36.6715 28.8258V30.8072H16.3702V28.8258ZM36.2329 37.6585L36.0304 37.4472L36.3838 37.0784C36.3413 37.2739 36.2909 37.4674 36.2329 37.6585ZM33.2607 40.8193L33.0297 40.5783L34.0328 39.5316L34.5733 40.0956C34.1999 40.3721 33.7639 40.6131 33.2607 40.8193ZM30.8764 41.4624L30.0291 40.5782L31.0321 39.5316L32.0352 40.5782L31.2526 41.3948C31.1297 41.4185 31.0042 41.441 30.8764 41.4624ZM21.8146 41.4L21.0271 40.5782L22.0302 39.5316L23.0332 40.5782L22.1831 41.4652C22.06 41.445 21.9372 41.4232 21.8146 41.4ZM18.4804 40.1045L19.0295 39.5316L20.0325 40.5783L19.7959 40.8252C19.2919 40.6199 18.8547 40.3799 18.4804 40.1045ZM16.3718 33.6273L17.0319 34.316L16.4055 34.9696C16.3843 34.5355 16.3751 34.0872 16.3718 33.6273ZM16.652 37.0507L17.0319 37.4471L16.8137 37.6748C16.7515 37.4733 16.6981 37.265 16.652 37.0507ZM16.5261 35.8816L17.5292 34.8349L18.5322 35.8815L17.5292 36.9281L16.5261 35.8816ZM33.5355 35.8816L32.5324 36.9282L31.5293 35.8816L32.5324 34.8349L33.5355 35.8816ZM33.0297 34.316L34.0328 33.2693L35.0358 34.316L34.0328 35.3627L33.0297 34.316ZM29.5317 37.966L30.5348 39.0127L29.5317 40.0594L28.5287 39.0127L29.5317 37.966ZM28.0314 38.4938L27.0284 37.4471L28.0314 36.4005L29.0345 37.4472L28.0314 38.4938ZM30.0291 37.4471L31.0321 36.4004L32.0352 37.4471L31.0321 38.4938L30.0291 37.4471ZM31.0321 35.3627L30.029 34.316L31.0321 33.2694L32.0351 34.316L31.0321 35.3627ZM30.5348 35.8816L29.5317 36.9282L28.5287 35.8816L29.5317 34.8349L30.5348 35.8816ZM28.0314 35.3627L27.0284 34.316L28.0314 33.2694L29.0345 34.316L28.0314 35.3627ZM27.5342 35.8816L26.5311 36.9282L25.528 35.8816L26.5311 34.8349L27.5342 35.8816ZM23.5304 37.966L24.5335 39.0127L23.5304 40.0593L22.5274 39.0127L23.5304 37.966ZM22.0301 38.4938L21.0271 37.4471L22.0301 36.4004L23.0332 37.4471L22.0301 38.4938ZM24.0278 37.4471L25.0308 36.4004L26.0339 37.4471L25.0308 38.4937L24.0278 37.4471ZM25.0308 35.3627L24.0277 34.316L25.0308 33.2693L26.0338 34.316L25.0308 35.3627ZM24.5335 35.8816L23.5304 36.9282L22.5274 35.8816L23.5304 34.8349L24.5335 35.8816ZM22.0301 35.3627L21.0271 34.316L22.0301 33.2694L23.0332 34.316L22.0301 35.3627ZM21.5328 35.8816L20.5298 36.9282L19.5267 35.8816L20.5298 34.8349L21.5328 35.8816ZM19.0295 35.3627L18.0264 34.316L19.0295 33.2694L20.0325 34.316L19.0295 35.3627ZM19.0295 36.4005L20.0325 37.4472L19.0295 38.4938L18.0264 37.4472L19.0295 36.4005ZM20.5298 37.966L21.5328 39.0127L20.5298 40.0594L19.5267 39.0127L20.5298 37.966ZM23.5304 41.0971L24.0944 41.6856C23.7487 41.661 23.4036 41.6287 23.0593 41.5887L23.5304 41.0971ZM24.0277 40.5782L25.0308 39.5316L26.0338 40.5782L25.0308 41.6249L24.0277 40.5782ZM25.528 39.0127L26.5311 37.966L27.5342 39.0127L26.5311 40.0594L25.528 39.0127ZM28.0314 39.5316L29.0345 40.5783L28.0314 41.625L27.0284 40.5783L28.0314 39.5316ZM29.5317 41.0972L30.0006 41.5864C29.6576 41.6266 29.3138 41.6591 28.9694 41.6839L29.5317 41.0972ZM32.5324 40.0593L31.5293 39.0127L32.5324 37.966L33.5355 39.0127L32.5324 40.0593ZM33.0297 37.4471L34.0328 36.4004L35.0358 37.4471L34.0328 38.4938L33.0297 37.4471ZM34.53 35.8816L35.5331 34.8349L36.5362 35.8816L35.5331 36.9282L34.53 35.8816ZM36.0304 34.316L36.6696 33.6489C36.6663 34.0941 36.6573 34.5282 36.6371 34.9491L36.0304 34.316ZM35.533 33.7971L34.8714 33.1067H36.1947L35.533 33.7971ZM32.5324 33.7971L31.8707 33.1067H33.1941L32.5324 33.7971ZM29.5317 33.7971L28.8701 33.1067H30.1934L29.5317 33.7971ZM26.5311 33.7971L25.8694 33.1067H27.1928L26.5311 33.7971ZM23.5304 33.7971L22.8687 33.1067H24.1921L23.5304 33.7971ZM20.5298 33.7971L19.8681 33.1067H21.1915L20.5298 33.7971ZM17.5291 33.7971L16.8674 33.1067H18.1908L17.5291 33.7971ZM17.0975 38.4164L17.5291 37.966L18.5322 39.0127L17.9353 39.6355C17.8885 39.588 17.8428 39.5393 17.7982 39.4894C17.511 39.1679 17.2813 38.8086 17.0975 38.4164ZM25.895 41.7609L26.5311 41.0971L27.1669 41.7605C26.9516 41.7641 26.7362 41.766 26.5209 41.7661C26.3079 41.7661 26.1002 41.764 25.895 41.7609ZM35.2434 39.4894C35.2021 39.5355 35.1599 39.5807 35.1166 39.6248L34.53 39.0127L35.533 37.966L35.9509 38.402C35.766 38.7998 35.5342 39.164 35.2434 39.4894ZM37.3982 32.3728H15.6435C15.4237 32.3728 15.2449 32.1863 15.2449 31.9569C15.2449 31.7276 15.4237 31.5411 15.6435 31.5411H37.3982C37.6179 31.5411 37.7967 31.7276 37.7967 31.9569C37.7967 32.1863 37.6179 32.3728 37.3982 32.3728Z" fill="#FCF9F7"/>
</g>
<g filter="url(#filter1_i_234_9529)">
<rect x="18.5" width="14" height="14" rx="7" fill="#FEF2EB"/>
</g>
<defs>
<filter id="filter0_i_234_9529" x="0" y="4" width="52" height="52" filterUnits="userSpaceOnUse" color-interpolation-filters="sRGB">
<feFlood flood-opacity="0" result="BackgroundImageFix"/>
<feBlend mode="normal" in="SourceGraphic" in2="BackgroundImageFix" result="shape"/>
<feColorMatrix in="SourceAlpha" type="matrix" values="0 0 0 0 0 0 0 0 0 0 0 0 0 0 0 0 0 0 127 0" result="hardAlpha"/>
<feOffset/>
<feGaussianBlur stdDeviation="2"/>
<feComposite in2="hardAlpha" operator="arithmetic" k2="-1" k3="1"/>
<feColorMatrix type="matrix" values="0 0 0 0 0.429167 0 0 0 0 0.149187 0 0 0 0 0 0 0 0 0.15 0"/>
<feBlend mode="normal" in2="shape" result="effect1_innerShadow_234_9529"/>
</filter>
<filter id="filter1_i_234_9529" x="18.5" y="0" width="14" height="14" filterUnits="userSpaceOnUse" color-interpolation-filters="sRGB">
<feFlood flood-opacity="0" result="BackgroundImageFix"/>
<feBlend mode="normal" in="SourceGraphic" in2="BackgroundImageFix" result="shape"/>
<feColorMatrix in="SourceAlpha" type="matrix" values="0 0 0 0 0 0 0 0 0 0 0 0 0 0 0 0 0 0 127 0" result="hardAlpha"/>
<feOffset/>
<feGaussianBlur stdDeviation="2"/>
<feComposite in2="hardAlpha" operator="arithmetic" k2="-1" k3="1"/>
<feColorMatrix type="matrix" values="0 0 0 0 0.429167 0 0 0 0 0.149187 0 0 0 0 0 0 0 0 0.15 0"/>
<feBlend mode="normal" in2="shape" result="effect1_innerShadow_234_9529"/>
</filter>
<clipPath id="clip0_234_9529">
<rect width="25" height="25" fill="white" transform="translate(13.5 17.5)"/>
</clipPath>
</defs>
</svg>
