<svg id="Capa_1" enable-background="new 0 0 512 512" height="40" viewBox="0 0 512 512" width="40" xmlns="http://www.w3.org/2000/svg"><g><path d="m444.758 281h41.124l11.819-65h-45.438z"/><path d="m422.064 216h-45.174l-3.191 65h40.86z"/><path d="m343.663 281 3.191-65h-45.27l1.122 65z"/><path d="m231.779 281h40.923l-1.123-65h-45.236z"/><path d="m271.061 186-1.122-65h-51.541l5.436 65z"/><path d="m508.516 126.389c-2.849-3.415-7.068-5.389-11.516-5.389h-33.769l-7.505 65h47.429l8.603-47.316c.796-4.376-.392-8.88-3.242-12.295z"/><path d="m433.032 121h-51.478l-3.191 65h47.164z"/><path d="m348.327 186 3.191-65h-51.575l1.122 65z"/><path d="m477 431h-27.58c-6.192-17.459-22.865-30-42.42-30s-36.228 12.541-42.42 30h-105.16c-6.192-17.459-22.865-30-42.42-30s-36.228 12.541-42.42 30h-16.595c-7.742 0-11.62-5.17-12.928-7.393-1.308-2.224-3.944-8.124-.185-14.893l20.954-37.714h291.174c7.249 0 13.461-5.184 14.758-12.317l8.67-47.683h-315.01l-4.5-30h40.757l-5.436-65h-45.071l-4.5-30h47.062l-5.436-65h-51.375l-9.251-61.676c-3.333-22.206-22.049-38.324-44.503-38.324h-68.165c-8.284 0-15 6.716-15 15s6.716 15 15 15h68.165c7.485 0 13.724 5.373 14.834 12.774l43.41 289.402-22.76 40.97c-7.826 14.086-7.619 30.786.553 44.675 8.172 13.888 22.67 22.179 38.784 22.179h16.595c6.192 17.459 22.865 30 42.42 30s36.228-12.541 42.42-30h105.16c6.192 17.459 22.865 30 42.42 30s36.228-12.541 42.42-30h27.579c8.284 0 15-6.716 15-15s-6.716-15-15-15z"/></g></svg>